# xmcd
#
# Track frame offsets: 
#        150
#        29509
#        58789
#        88478
#        117952
#        147373
#        170645
#        197834
#        232324
#
# Disc length: 3280 seconds
#
# Revision: 0
# Processed by: cddbd v1.5.2PL0 Copyright (c) Steve Scherf et al.
# Submitted via: ExactAudioCopy v0.95b4
#
DISCID=8d0cce09
DTITLE=Phillip Walker - Live in Paris
DYEAR=2003
DGENRE=Blues
TTITLE0=On My Way
TTITLE1=Street Walkin Woman
TTITLE2=Tin Pan Alley
TTITLE3=Breakin Up Somebody's Home
TTITLE4=Busted
TTITLE5=It's All In Your Mind
TTITLE6=Driftin
TTITLE7=Boogie Woogie Rambler
TTITLE8=I've Got A Problem
EXTD=
EXTT0=
EXTT1=
EXTT2=
EXTT3=
EXTT4=
EXTT5=
EXTT6=
EXTT7=
EXTT8=
PLAYORDER=
